# xmcd
#
# Track frame offsets:
#	150
#	21657
#	44017
#	65285
#
# Disc length: 1121 seconds
#
# Revision: 0
# Processed by: cddbd v1.5.1PL0 Copyright (c) Steve Scherf et al.
# Submitted via: audiograbber 1.82.01
#
DISCID=36045f04
DTITLE=MAdrugara - Higher EP
DYEAR=2002
DGENRE=Alternative
TTITLE0=Higher
TTITLE1=Tonight I have no words for you
TTITLE2=The riverbed
TTITLE3=Highway 2.000.000
EXTD=YEAR: 2002
EXTT0=
EXTT1=
EXTT2=
EXTT3=
PLAYORDER=
